<svg class="svg-icon" style="width: 1em; height: 1em;vertical-align: middle;fill: currentColor;overflow: hidden;" viewBox="0 0 1024 1024" version="1.1" xmlns="http://www.w3.org/2000/svg"><path d="M514 912c-219.9 0-398.9-178.9-398.9-398.9 0-219.9 178.9-398.8 398.9-398.8 219.9 0 398.8 178.9 398.8 398.8 0 220-178.9 398.9-398.8 398.9z m0-701.5c-166.9 0-302.7 135.8-302.7 302.7S347.1 815.9 514 815.9s302.7-135.8 302.7-302.7S680.9 210.5 514 210.5z" fill="#444444" /><path d="M419.6 704.5c-32.5 0-58.8-26.3-58.8-58.8V381.4c0-32.5 26.3-58.8 58.8-58.8s58.8 26.3 58.8 58.8v264.4c0 32.4-26.3 58.7-58.8 58.7zM608.4 704.5c-32.5 0-58.8-26.3-58.8-58.8V381.4c0-32.5 26.3-58.8 58.8-58.8s58.8 26.3 58.8 58.8v264.4c-0.1 32.4-26.4 58.7-58.8 58.7z" fill="#2867CE" /></svg>