<svg class="svg-icon" style="width: 1em;height: 1em;vertical-align: middle;fill: currentColor;overflow: hidden;" viewBox="0 0 1024 1024" version="1.1" xmlns="http://www.w3.org/2000/svg"><path d="M634.453333 820.906667L512 728.32a13.226667 13.226667 0 0 0-8.533333-2.986667 14.506667 14.506667 0 0 0-14.506667 14.08v59.733334a287.146667 287.146667 0 0 1-178.346667-512 31.146667 31.146667 0 0 0 5.973334-42.666667 32.426667 32.426667 0 0 0-47.36-7.68 351.146667 351.146667 0 0 0 221.44 625.92v61.866667a14.506667 14.506667 0 0 0 14.506666 14.08 13.226667 13.226667 0 0 0 8.533334-2.986667l120.746666-92.586667a14.08 14.08 0 0 0 0-22.186666zM829.44 321.706667a350.72 350.72 0 0 0-296.106667-160.426667V99.413333a14.506667 14.506667 0 0 0-14.506666-14.08 13.226667 13.226667 0 0 0-8.533334 2.986667L389.546667 180.906667a14.08 14.08 0 0 0 0 22.186666L512 295.68a13.226667 13.226667 0 0 0 8.533333 2.986667 14.506667 14.506667 0 0 0 14.506667-14.08v-59.733334a287.146667 287.146667 0 0 1 178.346667 512 31.146667 31.146667 0 0 0-5.973334 42.666667 32.426667 32.426667 0 0 0 47.36 7.68 352 352 0 0 0 74.666667-465.493333z" fill="#444444" /><path d="M512 629.333333A117.333333 117.333333 0 1 1 629.333333 512 117.333333 117.333333 0 0 1 512 629.333333z m0-170.666666A53.333333 53.333333 0 1 0 565.333333 512 53.333333 53.333333 0 0 0 512 458.666667z" fill="#4E78FE" /></svg>